<svg xmlns="http://www.w3.org/2000/svg" xmlns:xlink="http://www.w3.org/1999/xlink" width="200" height="40"><defs><g id="g"><path d="M0 3.25V0h3.25L16 15l-1 1z"/><path d="M15 10v2l-3 3h-2z"/></g><clipPath id="h"><path d="M0 0h11.75L0 14.25zM16 4.25V16H1.75z"/></clipPath><mask id="j"><path fill="#fff" d="M0 0h16v16H0z"/><path d="M3 2h1.8l7 8.2-.6.6-8.2-7z"/><path d="M13 2h-1.8l-7 8.2.6.6 8.2-7z"/><g stroke="#000" stroke-width=".8"><path d="M11.5 8.25L9.25 10.5M4.5 8.25l2.25 2.25"/></g><g stroke="#fff" stroke-width=".8"><path d="M8.12 5L6.23 7.2M10 6.89L7.51 9"/></g></mask><mask id="k"><path fill="#fff" d="M0 0h16v16H0z"/><use xlink:href="#a" transform="matrix(.6 0 0 .6 2.7 1.8)"/></mask><mask id="i"><path fill="#fff" d="M0 0h16v16H0z"/><use xlink:href="#b" transform="matrix(.6 0 0 .65 3.15 2.763)"/></mask><mask id="l"><path fill="#fff" d="M0 0h16v16H0z"/><use xlink:href="#c" transform="matrix(.6 0 0 .6 3.6 2.4)"/></mask><mask id="d"><path fill="#fff" d="M0 0h16v16H0z"/><circle cx="11.2" cy="4.9" r=".8"/></mask><g id="e"><path d="M15 1v2.5L1 16l-1-1L12.5 1z"/><path d="M1 10v2l3 3h2z"/></g><path d="M8 0l7 1.75-2 9.75-5 4.75-5-4.75-2-9.75z" id="b"/><g id="a"><path d="M7 3.5q7-.5 7 4.75C14 10 12.5 12.5 16 15c-6-3-8 .5-13.7.5L2.2 13C3 13 8 11 8 8L2.1 9.5Q2.5 4 7 3.5z"/><path d="M7.5 0q9 0 8 10l-.5-.1q1-8.4-7.5-7.6z"/></g><path d="M1.7 16Q.5 12 2 7.7H.2Q2.5 6 6 3.5l-2.8-.8Q7 1 10 2L11.7.3l.8 1.7 3.2 7q.3 3-1.6 2.5L9 7.5Q7 11 11.5 16z" id="c" mask="url(#d)"/><g id="m"><circle cx="8" cy="8" r="6.75" fill="transparent" stroke="#000" stroke-width="2.5"/><circle cx="8" cy="8" r="3"/><g stroke="#000" stroke-width="2"><path d="M6 1l4 14M13 3L3 13M1 6l14 4"/></g></g><g id="f"><path d="M10 12h6v2h-6z"/><path d="M12 10h2v6h-2z"/></g><g id="q"><use xlink:href="#e"/><use xlink:href="#f"/></g><g id="p"><use xlink:href="#g" clip-path="url(#h)"/><use xlink:href="#g" transform="matrix(-1 0 0 1 16 0)"/></g><g id="r"><use xlink:href="#e"/><use xlink:href="#a" transform="matrix(.5 0 0 .5 8 8)"/></g><g id="s"><use xlink:href="#e"/><use xlink:href="#c" transform="matrix(.5 0 0 .5 8 8)"/></g><g id="z"><path fill="transparent" stroke="#000" stroke-width="1.2" d="M1.25 8Q8 1 14.75 8 8 15 1.25 8z"/><ellipse cx="8" cy="7.75" rx="3" ry="2.5"/><circle cx="7.5" cy="6.75" r="1" fill="#fff"/></g><g id="u"><use xlink:href="#b" transform="matrix(1 0 0 .85 -1 -.212)" mask="url(#i)"/><use xlink:href="#f"/></g><use xlink:href="#b" mask="url(#j)" id="t"/><use xlink:href="#b" mask="url(#k)" id="v"/><use xlink:href="#b" mask="url(#l)" id="x"/><g id="A"><use xlink:href="#b"/><ellipse cx="8" cy="7" rx="5" ry="3" fill="#fff"/><ellipse cx="8" cy="6.5" rx="3" ry="3"/><circle cx="7.5" cy="6.5" r="1" fill="#fff"/></g><use xlink:href="#a" id="w"/><use xlink:href="#c" id="y"/><g id="D"><path d="M1 16c1-1 0-3 1-5.5C2.5 9 6 6 6 5h4c0 1 3.5 4 4 5.5 1 2.5 0 4.5 1 5.5zM6 4q0-3-1-3 1 0 1.5-1 1.5 1 3 0 0 1 1.5 1-1 0-1 3z"/></g><g id="B"><path d="M2 16V7H0l7-7 2 2 1 2H8l1 2 3 1-1 3h1v3h1l3 1v2H8v-3h1v-3H6v6H3z"/><path d="M10 4h2v2h-2zM12 5h2v2h-2zM13 9h3v3h-3z"/></g><g id="C"><clipPath id="n"><path d="M8 0h8v16H0V8h8z"/></clipPath><use xlink:href="#m" clip-path="url(#n)"/><path d="M0 1h7v1H0zM1 3h6v1H1zM2 5h5v1H2z"/></g><g id="E"><path d="M6 1h5v15H6z"/><path d="M1 6h15v5H1z"/></g></defs><filter id="o"><feColorMatrix values="0.94 0 0 0 0.06 0 0.95 0 0 0.05 0 0 0.96 0 0.04 0 0 0 1 0"/></filter><g filter="url(#o)"><use xlink:href="#p"/><use xlink:href="#q" transform="translate(0 20)"/><use xlink:href="#r" transform="translate(20)"/><use xlink:href="#s" transform="translate(40)"/><use xlink:href="#t" transform="translate(60)"/><use xlink:href="#u" transform="translate(60 20)"/><use xlink:href="#v" transform="translate(80)"/><use xlink:href="#w" transform="translate(80 20)"/><use xlink:href="#x" transform="translate(100)"/><use xlink:href="#y" transform="translate(100 20)"/><use xlink:href="#z" transform="translate(120)"/><use xlink:href="#A" transform="translate(140)"/><use xlink:href="#B" transform="translate(160)"/><use xlink:href="#C" transform="translate(160 20)"/><use xlink:href="#D" transform="translate(180)"/><use xlink:href="#E" transform="translate(180 20)"/></g></svg>